<svg width="16" height="15" viewBox="0 0 16 15" fill="none" xmlns="http://www.w3.org/2000/svg">
<path d="M15.75 7.3125C15.75 6.68359 15.3945 6.10938 14.875 5.80859V1.65234C14.875 1.40625 14.6836 0.75 14 0.75C13.7812 0.75 13.5898 0.832031 13.4531 0.96875L11.1016 2.82812C9.95312 3.75781 8.47656 4.25 7 4.25H1.75C0.765625 4.25 0 5.04297 0 6V8.625C0 9.60938 0.765625 10.375 1.75 10.375H2.65234C2.625 10.6758 2.59766 10.9766 2.59766 11.25C2.59766 12.3438 2.84375 13.3828 3.30859 14.2852C3.44531 14.5859 3.74609 14.75 4.07422 14.75H6.09766C6.80859 14.75 7.24609 13.957 6.80859 13.3828C6.37109 12.7812 6.09766 12.0703 6.09766 11.25C6.09766 10.9492 6.15234 10.6758 6.20703 10.375H7C8.47656 10.375 9.95312 10.8945 11.1016 11.8242L13.4531 13.6836C13.5625 13.793 13.8086 13.875 13.9727 13.875C14.6562 13.875 14.8477 13.2734 14.8477 13V8.84375C15.3945 8.54297 15.75 7.96875 15.75 7.3125ZM13.125 11.1953L12.1953 10.457C10.7188 9.28125 8.88672 8.625 7 8.625V6C8.88672 6 10.7188 5.37109 12.1953 4.19531L13.125 3.45703V11.1953Z" fill="white"/>
</svg>
