<svg width="209" height="31" viewBox="0 0 209 31" fill="none" xmlns="http://www.w3.org/2000/svg">
<mask id="mask0" style="mask-type:alpha" maskUnits="userSpaceOnUse" x="74" y="6" width="135" height="18">
<path d="M208.718 23.5625V6.5032H74.1085V23.5615H208.718V23.5625Z" fill="white"/>
</mask>
<g mask="url(#mask0)">
<path fill-rule="evenodd" clip-rule="evenodd" d="M208.718 19.2177C206.351 22.5543 202.345 23.5625 198.568 23.5625C192.081 23.5625 186.717 20.2585 186.717 15.1034C186.717 10.171 192.081 6.66931 198.755 6.66931C201.837 6.66931 204.856 7.23389 207.206 9.2848L207.404 9.45763C207.501 9.54693 207.62 9.66599 207.721 9.76969C207.859 9.90891 207.967 10.0251 207.967 10.0251C207.689 10.317 207.418 10.4783 207.164 10.5532C206.881 10.6386 206.618 10.6137 206.396 10.5484C205.943 10.4101 205.648 10.0894 205.648 10.0894C204.002 8.52435 201.955 7.95785 199.695 7.95785C194.896 7.95785 191.804 10.6511 191.804 15.2004C191.804 19.2167 194.221 21.5797 198.288 21.9676C198.678 22.0281 199.097 22.0617 199.557 22.0617C200.266 22.0617 200.973 21.9801 201.663 21.839C202.567 21.6785 203.44 21.3781 204.248 20.9489C205.443 20.3536 206.469 19.548 207.177 18.5936L208.718 19.2177ZM85.9588 23.5625C79.4727 23.5625 74.1085 20.2585 74.1085 15.1034C74.1085 10.171 79.4737 6.66931 86.1481 6.66931C89.2287 6.66931 92.2489 7.23389 94.5989 9.2848L94.7969 9.45763C94.8944 9.54693 95.0125 9.66599 95.1139 9.76969C95.2505 9.90891 95.3578 10.0251 95.3578 10.0251C95.0817 10.317 94.8115 10.4783 94.5559 10.5532C94.273 10.6386 94.0116 10.6137 93.7882 10.5484C93.5051 10.4566 93.2484 10.2992 93.04 10.0894C91.3953 8.52435 89.3468 7.95785 87.0875 7.95785C82.2861 7.95785 79.1947 10.6511 79.1947 15.2004C79.1947 19.2167 81.612 21.5797 85.6808 21.9676C86.0701 22.0281 86.4895 22.0617 86.949 22.0617C87.6572 22.0617 88.3654 21.9801 89.0561 21.839C89.959 21.678 90.8305 21.3776 91.6382 20.9489C92.8371 20.3536 93.8624 19.548 94.5686 18.5936L96.1109 19.2177C93.7453 22.5543 89.7379 23.5625 85.9588 23.5625ZM137.777 11.7812C137.777 14.438 135.079 16.729 131.311 16.729H125.826V16.0117C125.826 15.6142 126.157 15.2906 126.558 15.2906H129.054C131.216 15.2906 132.987 13.7294 132.987 11.834C132.987 9.93483 131.216 8.37745 129.054 8.37745H125.12V23.283H120.372V6.94968H131.311C135.079 6.94968 137.778 9.12253 137.778 11.7812H137.777ZM169.65 6.94968L184.056 6.94584V8.37649H174.402V13.8581H183.414V15.2772H174.402V21.8553H184.056V23.284H169.65V6.94968ZM112.452 23.2821L109.357 18.173H102.948L103.584 17.066C103.65 16.9687 103.74 16.8891 103.845 16.8342C103.95 16.7792 104.067 16.7507 104.186 16.751L108.488 16.7482L105.76 12.2287L99.1437 23.283H96.702L106.915 6.5032L117.547 23.2821H112.451H112.452ZM164.558 6.9468L166.561 6.95064V8.37553H160.179V23.2821H155.464V8.37553L149.081 8.38225L149.083 6.94872L164.558 6.94488V6.9468ZM141.228 23.2514H146.008V6.93528H141.228V23.2523V23.2514Z" fill="#1D1D1B"/>
</g>
<path fill-rule="evenodd" clip-rule="evenodd" d="M42.8165 0.00096021H21.6706V8.73174C21.6706 11.8484 24.2625 14.3804 27.4299 14.3804H38.4862C42.4458 14.3804 45.6854 17.5691 45.6854 21.4664V29.719C53.3548 28.4708 59.2283 22.321 59.2283 14.9757C59.2283 6.7394 51.8428 0 42.8165 0" fill="#E63934"/>
<mask id="mask1" style="mask-type:alpha" maskUnits="userSpaceOnUse" x="0" y="0" width="40" height="31">
<path d="M0.443756 0.144989V30.0666H39.8247V0.144989H0.443756Z" fill="white"/>
</mask>
<g mask="url(#mask1)">
<path fill-rule="evenodd" clip-rule="evenodd" d="M34.0663 15.6036H23.0461C19.0856 15.6036 15.8469 12.4629 15.8469 8.56751V0.143982C7.28592 0.625024 0.443756 7.16375 0.443756 15.0899C0.443756 23.3281 7.83025 30.0666 16.8566 30.0666H39.8267V21.2714C39.8267 18.1548 37.2357 15.6036 34.0673 15.6036" fill="#00466E"/>
</g>
</svg>
