<svg width="318" height="41" viewBox="0 0 318 41" fill="none" xmlns="http://www.w3.org/2000/svg">
<g clip-path="url(#clip0)">
<g filter="url(#filter0_d)">
<path d="M2.464 9.216H10.848C14.5813 9.216 17.472 10.208 19.52 12.192C21.5893 14.176 22.624 16.9707 22.624 20.576C22.624 24.2027 21.5893 27.0187 19.52 29.024C17.472 31.008 14.5813 32 10.848 32H2.464V9.216ZM10.592 28.64C15.84 28.64 18.464 25.952 18.464 20.576C18.464 15.2427 15.84 12.576 10.592 12.576H6.592V28.64H10.592ZM32.919 32.256C31.2763 32.256 29.8257 31.9147 28.567 31.232C27.3297 30.5493 26.3697 29.5787 25.687 28.32C25.0257 27.04 24.695 25.5467 24.695 23.84C24.695 22.1333 25.0257 20.6507 25.687 19.392C26.3697 18.112 27.3297 17.1307 28.567 16.448C29.8257 15.7653 31.2763 15.424 32.919 15.424C34.5403 15.424 35.9697 15.7653 37.207 16.448C38.4443 17.1307 39.3937 18.112 40.055 19.392C40.7377 20.6507 41.079 22.1333 41.079 23.84C41.079 25.5467 40.7377 27.04 40.055 28.32C39.3937 29.5787 38.4443 30.5493 37.207 31.232C35.9697 31.9147 34.5403 32.256 32.919 32.256ZM32.887 29.12C34.2523 29.12 35.287 28.6827 35.991 27.808C36.7163 26.912 37.079 25.5893 37.079 23.84C37.079 22.112 36.7163 20.8 35.991 19.904C35.2657 18.9867 34.2417 18.528 32.919 18.528C31.575 18.528 30.5403 18.9867 29.815 19.904C29.0897 20.8 28.727 22.112 28.727 23.84C28.727 25.5893 29.079 26.912 29.783 27.808C30.5083 28.6827 31.543 29.12 32.887 29.12ZM62.6405 15.424C64.4752 15.424 65.8405 15.9787 66.7365 17.088C67.6325 18.176 68.0805 19.84 68.0805 22.08V32H64.0805V22.208C64.0805 20.928 63.8672 20.0107 63.4405 19.456C63.0352 18.88 62.3525 18.592 61.3925 18.592C60.2832 18.592 59.4085 18.9867 58.7685 19.776C58.1498 20.544 57.8405 21.6107 57.8405 22.976V32H53.8405V22.208C53.8405 20.9493 53.6165 20.032 53.1685 19.456C52.7418 18.88 52.0592 18.592 51.1205 18.592C50.0112 18.592 49.1365 18.9867 48.4965 19.776C47.8565 20.544 47.5365 21.6107 47.5365 22.976V32H43.5685V20.416C43.5685 18.7093 43.4832 17.184 43.3125 15.84H47.0565L47.3445 18.4C47.8138 17.44 48.4858 16.704 49.3605 16.192C50.2565 15.68 51.2805 15.424 52.4325 15.424C54.9072 15.424 56.5178 16.448 57.2645 18.496C57.7765 17.536 58.5018 16.7893 59.4405 16.256C60.4005 15.7013 61.4672 15.424 62.6405 15.424ZM111.806 32.256C110.121 32.256 108.66 31.9147 107.422 31.232C106.185 30.5493 105.236 29.5893 104.574 28.352C103.913 27.0933 103.582 25.6213 103.582 23.936C103.582 22.2507 103.924 20.768 104.606 19.488C105.31 18.208 106.292 17.216 107.55 16.512C108.83 15.7867 110.302 15.424 111.966 15.424C113.118 15.424 114.228 15.6053 115.294 15.968C116.382 16.3307 117.246 16.832 117.886 17.472L116.766 20.288C116.084 19.7333 115.358 19.3173 114.59 19.04C113.822 18.7413 113.065 18.592 112.318 18.592C110.868 18.592 109.737 19.0507 108.926 19.968C108.116 20.864 107.71 22.1653 107.71 23.872C107.71 25.5787 108.105 26.88 108.894 27.776C109.705 28.672 110.846 29.12 112.318 29.12C113.065 29.12 113.822 28.9707 114.59 28.672C115.358 28.3733 116.084 27.9467 116.766 27.392L117.886 30.208C117.204 30.848 116.318 31.3493 115.23 31.712C114.142 32.0747 113.001 32.256 111.806 32.256ZM135.068 15.84V32H131.132V29.408C130.642 30.304 129.938 31.008 129.02 31.52C128.103 32.0107 127.058 32.256 125.884 32.256C124.476 32.256 123.228 31.9147 122.14 31.232C121.052 30.5493 120.21 29.5787 119.612 28.32C119.015 27.0613 118.716 25.6 118.716 23.936C118.716 22.272 119.015 20.8 119.612 19.52C120.231 18.2187 121.084 17.216 122.172 16.512C123.26 15.7867 124.498 15.424 125.884 15.424C127.058 15.424 128.103 15.68 129.02 16.192C129.938 16.6827 130.642 17.376 131.132 18.272V15.84H135.068ZM126.972 29.12C128.295 29.12 129.319 28.6613 130.044 27.744C130.77 26.8267 131.132 25.536 131.132 23.872C131.132 22.1653 130.77 20.8533 130.044 19.936C129.319 19.0187 128.284 18.56 126.94 18.56C125.618 18.56 124.583 19.04 123.836 20C123.111 20.9387 122.748 22.2507 122.748 23.936C122.748 25.6 123.111 26.88 123.836 27.776C124.583 28.672 125.628 29.12 126.972 29.12ZM147.713 15.424C151.574 15.424 153.505 17.6427 153.505 22.08V32H149.505V22.272C149.505 20.992 149.259 20.064 148.769 19.488C148.278 18.8907 147.521 18.592 146.497 18.592C145.281 18.592 144.299 18.9867 143.553 19.776C142.806 20.544 142.433 21.568 142.433 22.848V32H138.465V20.416C138.465 18.7093 138.379 17.184 138.209 15.84H141.953L142.241 18.496C142.795 17.5147 143.542 16.7573 144.481 16.224C145.441 15.6907 146.518 15.424 147.713 15.424ZM172.242 15.84V32H168.306V29.408C167.815 30.304 167.111 31.008 166.194 31.52C165.277 32.0107 164.231 32.256 163.058 32.256C161.65 32.256 160.402 31.9147 159.314 31.232C158.226 30.5493 157.383 29.5787 156.786 28.32C156.189 27.0613 155.89 25.6 155.89 23.936C155.89 22.272 156.189 20.8 156.786 19.52C157.405 18.2187 158.258 17.216 159.346 16.512C160.434 15.7867 161.671 15.424 163.058 15.424C164.231 15.424 165.277 15.68 166.194 16.192C167.111 16.6827 167.815 17.376 168.306 18.272V15.84H172.242ZM164.146 29.12C165.469 29.12 166.493 28.6613 167.218 27.744C167.943 26.8267 168.306 25.536 168.306 23.872C168.306 22.1653 167.943 20.8533 167.218 19.936C166.493 19.0187 165.458 18.56 164.114 18.56C162.791 18.56 161.757 19.04 161.01 20C160.285 20.9387 159.922 22.2507 159.922 23.936C159.922 25.6 160.285 26.88 161.01 27.776C161.757 28.672 162.802 29.12 164.146 29.12ZM183.748 9.216H198.98V12.48H187.78V18.784H198.308V22.048H187.78V28.736H198.98V32H183.748V9.216ZM296.131 18.848V26.08C296.131 27.9787 297.017 28.928 298.787 28.928C299.278 28.928 299.811 28.8427 300.387 28.672V31.84C299.683 32.096 298.83 32.224 297.827 32.224C295.993 32.224 294.585 31.712 293.603 30.688C292.622 29.664 292.131 28.192 292.131 26.272V18.848H289.027V15.84H292.131V11.904L296.131 10.56V15.84H300.419V18.848H296.131ZM316.353 24.128H305.217C305.302 25.856 305.729 27.136 306.497 27.968C307.286 28.7787 308.449 29.184 309.985 29.184C311.755 29.184 313.398 28.608 314.913 27.456L316.065 30.208C315.297 30.8267 314.347 31.328 313.217 31.712C312.107 32.0747 310.977 32.256 309.825 32.256C307.179 32.256 305.099 31.5093 303.585 30.016C302.07 28.5227 301.313 26.4747 301.313 23.872C301.313 22.2293 301.643 20.768 302.305 19.488C302.966 18.208 303.894 17.216 305.089 16.512C306.283 15.7867 307.638 15.424 309.153 15.424C311.371 15.424 313.121 16.1493 314.401 17.6C315.702 19.0293 316.353 21.0027 316.353 23.52V24.128ZM309.249 18.304C308.182 18.304 307.307 18.624 306.625 19.264C305.963 19.8827 305.537 20.7893 305.345 21.984H312.865C312.737 20.768 312.363 19.8507 311.745 19.232C311.147 18.6133 310.315 18.304 309.249 18.304Z" fill="#000AFF"/>
<path d="M71.3898 15.84H75.3578V32H71.3898V15.84ZM75.5818 8.512V12.448H71.1338V8.512H75.5818ZM88.0215 15.424C91.8828 15.424 93.8135 17.6427 93.8135 22.08V32H89.8135V22.272C89.8135 20.992 89.5682 20.064 89.0775 19.488C88.5868 18.8907 87.8295 18.592 86.8055 18.592C85.5895 18.592 84.6082 18.9867 83.8615 19.776C83.1148 20.544 82.7415 21.568 82.7415 22.848V32H78.7735V20.416C78.7735 18.7093 78.6882 17.184 78.5175 15.84H82.2615L82.5495 18.496C83.1042 17.5147 83.8508 16.7573 84.7895 16.224C85.7495 15.6907 86.8268 15.424 88.0215 15.424ZM97.0947 15.84H101.063V32H97.0947V15.84ZM101.287 8.512V12.448H96.8387V8.512H101.287ZM220.603 15.424C222.438 15.424 223.803 15.9787 224.699 17.088C225.595 18.176 226.043 19.84 226.043 22.08V32H222.043V22.208C222.043 20.928 221.83 20.0107 221.403 19.456C220.998 18.88 220.315 18.592 219.355 18.592C218.246 18.592 217.371 18.9867 216.731 19.776C216.112 20.544 215.803 21.6107 215.803 22.976V32H211.803V22.208C211.803 20.9493 211.579 20.032 211.131 19.456C210.704 18.88 210.022 18.592 209.083 18.592C207.974 18.592 207.099 18.9867 206.459 19.776C205.819 20.544 205.499 21.6107 205.499 22.976V32H201.531V20.416C201.531 18.7093 201.446 17.184 201.275 15.84H205.019L205.307 18.4C205.776 17.44 206.448 16.704 207.323 16.192C208.219 15.68 209.243 15.424 210.395 15.424C212.87 15.424 214.48 16.448 215.227 18.496C215.739 17.536 216.464 16.7893 217.403 16.256C218.363 15.7013 219.43 15.424 220.603 15.424ZM238.568 15.424C239.955 15.424 241.182 15.7867 242.248 16.512C243.336 17.216 244.179 18.2187 244.776 19.52C245.395 20.8 245.704 22.272 245.704 23.936C245.704 25.6 245.406 27.0613 244.808 28.32C244.211 29.5787 243.368 30.5493 242.28 31.232C241.214 31.9147 239.976 32.256 238.568 32.256C237.395 32.256 236.35 32.0107 235.432 31.52C234.515 31.008 233.811 30.304 233.32 29.408V38.912H229.352V20.416C229.352 18.7093 229.267 17.184 229.096 15.84H232.84L233.16 18.624C233.587 17.6213 234.28 16.8427 235.24 16.288C236.2 15.712 237.31 15.424 238.568 15.424ZM237.48 29.12C238.824 29.12 239.859 28.672 240.584 27.776C241.31 26.88 241.672 25.6 241.672 23.936C241.672 22.2507 241.31 20.9387 240.584 20C239.859 19.04 238.835 18.56 237.512 18.56C236.147 18.56 235.102 19.0187 234.376 19.936C233.651 20.8533 233.288 22.1653 233.288 23.872C233.288 25.5573 233.651 26.8587 234.376 27.776C235.102 28.672 236.136 29.12 237.48 29.12ZM248.236 8.448H252.204V32H248.236V8.448ZM269.764 24.128H258.628C258.713 25.856 259.14 27.136 259.908 27.968C260.697 28.7787 261.86 29.184 263.396 29.184C265.166 29.184 266.809 28.608 268.324 27.456L269.476 30.208C268.708 30.8267 267.758 31.328 266.628 31.712C265.518 32.0747 264.388 32.256 263.236 32.256C260.59 32.256 258.51 31.5093 256.996 30.016C255.481 28.5227 254.724 26.4747 254.724 23.872C254.724 22.2293 255.054 20.768 255.716 19.488C256.377 18.208 257.305 17.216 258.5 16.512C259.694 15.7867 261.049 15.424 262.564 15.424C264.782 15.424 266.532 16.1493 267.812 17.6C269.113 19.0293 269.764 21.0027 269.764 23.52V24.128ZM262.66 18.304C261.593 18.304 260.718 18.624 260.036 19.264C259.374 19.8827 258.948 20.7893 258.756 21.984H266.276C266.148 20.768 265.774 19.8507 265.156 19.232C264.558 18.6133 263.726 18.304 262.66 18.304ZM287.647 15.84V32H283.711V29.408C283.22 30.304 282.516 31.008 281.599 31.52C280.682 32.0107 279.636 32.256 278.463 32.256C277.055 32.256 275.807 31.9147 274.719 31.232C273.631 30.5493 272.788 29.5787 272.191 28.32C271.594 27.0613 271.295 25.6 271.295 23.936C271.295 22.272 271.594 20.8 272.191 19.52C272.81 18.2187 273.663 17.216 274.751 16.512C275.839 15.7867 277.076 15.424 278.463 15.424C279.636 15.424 280.682 15.68 281.599 16.192C282.516 16.6827 283.22 17.376 283.711 18.272V15.84H287.647ZM279.551 29.12C280.874 29.12 281.898 28.6613 282.623 27.744C283.348 26.8267 283.711 25.536 283.711 23.872C283.711 22.1653 283.348 20.8533 282.623 19.936C281.898 19.0187 280.863 18.56 279.519 18.56C278.196 18.56 277.162 19.04 276.415 20C275.69 20.9387 275.327 22.2507 275.327 23.936C275.327 25.6 275.69 26.88 276.415 27.776C277.162 28.672 278.207 29.12 279.551 29.12Z" fill="#FF0000"/>
</g>
</g>
<defs>
<filter id="filter0_d" x="-1.536" y="8.448" width="321.888" height="38.464" filterUnits="userSpaceOnUse" color-interpolation-filters="sRGB">
<feFlood flood-opacity="0" result="BackgroundImageFix"/>
<feColorMatrix in="SourceAlpha" type="matrix" values="0 0 0 0 0 0 0 0 0 0 0 0 0 0 0 0 0 0 127 0" result="hardAlpha"/>
<feOffset dy="4"/>
<feGaussianBlur stdDeviation="2"/>
<feComposite in2="hardAlpha" operator="out"/>
<feColorMatrix type="matrix" values="0 0 0 0 0 0 0 0 0 0 0 0 0 0 0 0 0 0 0.25 0"/>
<feBlend mode="normal" in2="BackgroundImageFix" result="effect1_dropShadow"/>
<feBlend mode="normal" in="SourceGraphic" in2="effect1_dropShadow" result="shape"/>
</filter>
<clipPath id="clip0">
<rect width="318" height="41" fill="white"/>
</clipPath>
</defs>
</svg>
