<svg width="287" height="285" viewBox="0 0 287 285" fill="none" xmlns="http://www.w3.org/2000/svg">
<g clip-path="url(#clip0)">
<path d="M287 154C287 226.349 228.349 285 156 285H152L152 150L287 150V154Z" fill="#000AFF"/>
<path d="M156 0C228.349 0 287 58.6507 287 131V135H152V0L156 0Z" fill="#000AFF"/>
<path d="M131 285C58.6507 285 0 226.349 0 154L0 150L135 150L135 285H131Z" fill="#FF0000"/>
<path d="M0 131C0 58.6507 58.6507 0 131 0H135V135H0V131Z" fill="#FF0000"/>
<path d="M228 110C227.993 103.107 225.617 96.4979 221.393 91.6235C217.169 86.7492 211.441 84.0075 205.467 84H188.567V77.5C188.562 72.3299 186.78 67.3732 183.612 63.7174C180.443 60.0616 176.147 58.0054 171.667 58H115.333C110.853 58.0054 106.557 60.0616 103.388 63.7174C100.22 67.3732 98.438 72.3299 98.4333 77.5V84H81.5333C75.5591 84.0075 69.8315 86.7492 65.6071 91.6235C61.3827 96.4979 59.0065 103.107 59 110V129.5H228V110ZM177.3 84H109.7V77.5C109.7 75.7761 110.294 74.1228 111.35 72.9038C112.406 71.6848 113.839 71 115.333 71H171.667C173.161 71 174.594 71.6848 175.65 72.9038C176.706 74.1228 177.3 75.7761 177.3 77.5V84ZM171.667 145.75C171.667 148.336 170.776 150.816 169.192 152.644C167.607 154.473 165.458 155.5 163.217 155.5H123.783C121.542 155.5 119.393 154.473 117.808 152.644C116.224 150.816 115.333 148.336 115.333 145.75V144.125C115.333 143.694 115.185 143.281 114.921 142.976C114.657 142.671 114.299 142.5 113.925 142.5H59V201C59 207.896 61.374 214.509 65.5999 219.385C69.8257 224.261 75.5571 227 81.5333 227H205.467C211.443 227 217.174 224.261 221.4 219.385C225.626 214.509 228 207.896 228 201V142.5H173.075C172.701 142.5 172.343 142.671 172.079 142.976C171.815 143.281 171.667 143.694 171.667 144.125V145.75Z" fill="white"/>
</g>
<defs>
<clipPath id="clip0">
<rect width="287" height="285" fill="white"/>
</clipPath>
</defs>
</svg>
